{
  "accessors": [
    {
      "bufferView": 2,
      "componentType": 5126,
      "count": 425,
      "max": [
        9.4444551467895508,
        96,
        117.5
      ],
      "min": [
        0,
        -96,
        -117.5
      ],
      "type": "VEC3"
    },
    {
      "bufferView": 2,
      "byteOffset": 5100,
      "componentType": 5126,
      "count": 425,
      "max": [
        1,
        0.16094565391540527,
        0.11435467749834061
      ],
      "min": [
        0.98462802171707153,
        -0.17466443777084351,
        -0.11429746448993683
      ],
      "type": "VEC3"
    },
    {
      "bufferView": 3,
      "componentType": 5126,
      "count": 425,
      "max": [
        0.1143551766872406,
        0.00056785380002111197,
        -0.99344003200531006,
        1
      ],
      "min": [
        -0.11429795622825623,
        -0.0005656492430716753,
        -1,
        1
      ],
      "type": "VEC4"
    },
    {
      "bufferView": 1,
      "componentType": 5126,
      "count": 425,
      "max": [
        0.99112159013748169,
        0.98917621374130249
      ],
      "min": [
        0.0088784201070666313,
        0.010823845863342285
      ],
      "type": "VEC2"
    },
    {
      "bufferView": 0,
      "componentType": 5125,
      "count": 2304,
      "max": [
        424
      ],
      "min": [
        0
      ],
      "type": "SCALAR"
    },
    {
      "bufferView": 2,
      "byteOffset": 10200,
      "componentType": 5126,
      "count": 1584,
      "max": [
        156.913330078125,
        121.59285736083984,
        146.21629333496094
      ],
      "min": [
        -73.779327392578125,
        -161.49114990234375,
        -146.21629333496094
      ],
      "type": "VEC3"
    },
    {
      "bufferView": 2,
      "byteOffset": 29208,
      "componentType": 5126,
      "count": 1584,
      "max": [
        1,
        1,
        1
      ],
      "min": [
        -1,
        -1,
        -1
      ],
      "type": "VEC3"
    },
    {
      "bufferView": 3,
      "byteOffset": 6800,
      "componentType": 5126,
      "count": 1584,
      "max": [
        1,
        0.70054864883422852,
        1,
        1
      ],
      "min": [
        -1,
        -0.61596423387527466,
        -1,
        1
      ],
      "type": "VEC4"
    },
    {
      "bufferView": 1,
      "byteOffset": 3400,
      "componentType": 5126,
      "count": 1584,
      "max": [
        0.9913100004196167,
        0.99178296327590942
      ],
      "min": [
        0.0086899716407060623,
        0.0082170963287353516
      ],
      "type": "VEC2"
    },
    {
      "bufferView": 0,
      "byteOffset": 9216,
      "componentType": 5125,
      "count": 4614,
      "max": [
        1583
      ],
      "min": [
        0
      ],
      "type": "SCALAR"
    },
    {
      "bufferView": 2,
      "byteOffset": 48216,
      "componentType": 5126,
      "count": 1811,
      "max": [
        10.745237350463867,
        114.56880950927734,
        146.21629333496094
      ],
      "min": [
        -10.681751251220703,
        -114.56880950927734,
        -146.21629333496094
      ],
      "type": "VEC3"
    },
    {
      "bufferView": 2,
      "byteOffset": 69948,
      "componentType": 5126,
      "count": 1811,
      "max": [
        1,
        1,
        1
      ],
      "min": [
        -1,
        -1,
        -1
      ],
      "type": "VEC3"
    },
    {
      "bufferView": 3,
      "byteOffset": 32144,
      "componentType": 5126,
      "count": 1811,
      "max": [
        1,
        0.55777031183242798,
        1,
        1
      ],
      "min": [
        -1,
        -0.5577702522277832,
        -1,
        1
      ],
      "type": "VEC4"
    },
    {
      "bufferView": 1,
      "byteOffset": 16072,
      "componentType": 5126,
      "count": 1811,
      "max": [
        0.99151575565338135,
        0.99169790744781494
      ],
      "min": [
        0.0084842517971992493,
        0.0083020925521850586
      ],
      "type": "VEC2"
    },
    {
      "bufferView": 0,
      "byteOffset": 27672,
      "componentType": 5125,
      "count": 5058,
      "max": [
        1810
      ],
      "min": [
        0
      ],
      "type": "SCALAR"
    }
  ],
  "asset": {
    "extras": {
      "author": "Griffin Keller (https://sketchfab.com/griffinkeller)",
      "license": "CC-BY-NC-SA-4.0 (http://creativecommons.org/licenses/by-nc-sa/4.0/)",
      "source": "https://sketchfab.com/models/b4e4f8a5685b45bfa2916a519a71176e",
      "title": "Retro Computer Monitor"
    },
    "generator": "Sketchfab-4.28.3",
    "version": "2.0"
  },
  "bufferViews": [
    {
      "buffer": 0,
      "byteLength": 47904,
      "byteOffset": 0,
      "name": "floatBufferViews",
      "target": 34963
    },
    {
      "buffer": 0,
      "byteLength": 30560,
      "byteOffset": 47904,
      "byteStride": 8,
      "name": "floatBufferViews",
      "target": 34962
    },
    {
      "buffer": 0,
      "byteLength": 91680,
      "byteOffset": 78464,
      "byteStride": 12,
      "name": "floatBufferViews",
      "target": 34962
    },
    {
      "buffer": 0,
      "byteLength": 61120,
      "byteOffset": 170144,
      "byteStride": 16,
      "name": "floatBufferViews",
      "target": 34962
    }
  ],
  "buffers": [
    {
      "byteLength": 231264,
      "uri": "scene.bin"
    }
  ],
  "extensionsRequired": [
    "KHR_materials_pbrSpecularGlossiness"
  ],
  "extensionsUsed": [
    "KHR_materials_pbrSpecularGlossiness"
  ],
  "images": [
    {
      "uri": "textures/Plane__0_emissive.jpeg"
    },
    {
      "uri": "textures/Plane__0_diffuse.jpeg"
    },
    {
      "uri": "textures/material_diffuse.jpeg"
    },
    {
      "uri": "textures/Mat_0_diffuse.jpeg"
    }
  ],
  "materials": [
    {
      "doubleSided": true,
      "emissiveFactor": [
        0.87080792679999997,
        0.87080792679999997,
        0.87080792679999997
      ],
      "emissiveTexture": {
        "index": 0,
        "texCoord": 0
      },
      "extensions": {
        "KHR_materials_pbrSpecularGlossiness": {
          "diffuseFactor": [
            0.39805640240000001,
            0.39805640240000001,
            0.39805640240000001,
            1
          ],
          "diffuseTexture": {
            "index": 1,
            "texCoord": 0
          },
          "glossinessFactor": 0.40000000000000002,
          "specularFactor": [
            0,
            0,
            0
          ]
        }
      },
      "name": "Plane__0"
    },
    {
      "doubleSided": true,
      "emissiveFactor": [
        0,
        0,
        0
      ],
      "extensions": {
        "KHR_materials_pbrSpecularGlossiness": {
          "diffuseFactor": [
            1,
            1,
            1,
            1
          ],
          "diffuseTexture": {
            "index": 2,
            "texCoord": 0
          },
          "glossinessFactor": 0.047568284600000003,
          "specularFactor": [
            0,
            0,
            0
          ]
        }
      },
      "name": "material"
    },
    {
      "doubleSided": true,
      "emissiveFactor": [
        0,
        0,
        0
      ],
      "extensions": {
        "KHR_materials_pbrSpecularGlossiness": {
          "diffuseFactor": [
            1,
            1,
            1,
            1
          ],
          "diffuseTexture": {
            "index": 3,
            "texCoord": 0
          },
          "glossinessFactor": 0.047568284600000003,
          "specularFactor": [
            0,
            0,
            0
          ]
        }
      },
      "name": "Mat_0"
    }
  ],
  "meshes": [
    {
      "name": "Plane__0",
      "primitives": [
        {
          "attributes": {
            "NORMAL": 1,
            "POSITION": 0,
            "TANGENT": 2,
            "TEXCOORD_0": 3
          },
          "indices": 4,
          "material": 0,
          "mode": 4
        }
      ]
    },
    {
      "name": "Box_Mat_0",
      "primitives": [
        {
          "attributes": {
            "NORMAL": 6,
            "POSITION": 5,
            "TANGENT": 7,
            "TEXCOORD_0": 8
          },
          "indices": 9,
          "material": 1,
          "mode": 4
        }
      ]
    },
    {
      "name": "FrontPanel_Mat_0",
      "primitives": [
        {
          "attributes": {
            "NORMAL": 11,
            "POSITION": 10,
            "TANGENT": 12,
            "TEXCOORD_0": 13
          },
          "indices": 14,
          "material": 2,
          "mode": 4
        }
      ]
    }
  ],
  "nodes": [
    {
      "children": [
        1
      ],
      "name": "RootNode (gltf orientation matrix)",
      "rotation": [
        -0.70710678118654746,
        -0,
        -0,
        0.70710678118654757
      ]
    },
    {
      "children": [
        2
      ],
      "matrix": [
        0.57983720302581787,
        -0.81473237276077271,
        0,
        0,
        0.81473237276077271,
        0.57983720302581787,
        0,
        0,
        0,
        0,
        1,
        0,
        -13.198761940002441,
        -25.594276428222656,
        0,
        1
      ],
      "name": "RootNode (model correction matrix)"
    },
    {
      "children": [
        3
      ],
      "matrix": [
        1,
        0,
        0,
        0,
        0,
        0,
        1,
        0,
        0,
        -1,
        0,
        0,
        0,
        0,
        0,
        1
      ],
      "name": "6331170ef29543bb825e64d8c7b457d5.fbx"
    },
    {
      "children": [
        4,
        7,
        9
      ],
      "name": "RootNode"
    },
    {
      "children": [
        5
      ],
      "name": "Subdivision_Surface"
    },
    {
      "children": [
        6
      ],
      "matrix": [
        1.0551725625991821,
        0,
        0,
        0,
        0,
        1.0551725625991821,
        0,
        0,
        0,
        0,
        1.0551725625991821,
        0,
        88.237548828125,
        166.36007690429688,
        0,
        1
      ],
      "name": "Plane"
    },
    {
      "mesh": 0,
      "name": "Plane__0"
    },
    {
      "children": [
        8
      ],
      "matrix": [
        1.0551725625991821,
        0,
        0,
        0,
        0,
        1.0551725625991821,
        0,
        0,
        0,
        0,
        1.0551725625991821,
        0,
        -83.181602478027344,
        169.75823974609375,
        0,
        1
      ],
      "name": "Box"
    },
    {
      "mesh": 1,
      "name": "Box_Mat_0"
    },
    {
      "children": [
        10
      ],
      "matrix": [
        1.0551725625991821,
        0,
        0,
        0,
        0,
        1.0551725625991821,
        0,
        0,
        0,
        0,
        1.0551725625991821,
        0,
        83.19293212890625,
        177.16981506347656,
        0,
        1
      ],
      "name": "FrontPanel"
    },
    {
      "mesh": 2,
      "name": "FrontPanel_Mat_0"
    }
  ],
  "samplers": [
    {
      "magFilter": 9729,
      "minFilter": 9987,
      "wrapS": 10497,
      "wrapT": 10497
    }
  ],
  "scene": 0,
  "scenes": [
    {
      "name": "OSG_Scene",
      "nodes": [
        0
      ]
    }
  ],
  "textures": [
    {
      "sampler": 0,
      "source": 0
    },
    {
      "sampler": 0,
      "source": 1
    },
    {
      "sampler": 0,
      "source": 2
    },
    {
      "sampler": 0,
      "source": 3
    }
  ]
}

